<svg xmlns="http://www.w3.org/2000/svg" xmlns:xlink="http://www.w3.org/1999/xlink" viewBox="0 0 873 679" version="1.1" width="500px" height="389px">
    <!-- Generator: Sketch 52.6 (67491) - http://www.bohemiancoding.com/sketch -->
    <title>mastercard</title>
    <desc>Created with Sketch.</desc>
    <g id="mastercard" stroke="none" stroke-width="1" fill="none" fill-rule="evenodd" fill-color-id="-1" stroke-color-id="-1" recolor-fill="true" recolor-stroke="true">
        <g fill-color-id="-1" stroke-color-id="-1" recolor-fill="true" recolor-stroke="true">
            <path d="M855.551837,669.750939 L855.551837,671.491084 L857.179898,671.491084 C857.485519,671.495968 857.786898,671.419371 858.052853,671.269216 C858.268351,671.117196 858.391646,670.866504 858.380211,670.60361 C858.391399,670.34555 858.26748,670.100176 858.052853,669.955406 C857.789932,669.797875 857.4864,669.72073 857.179898,669.733537 L855.551837,669.733537 L855.551837,669.750939 Z M857.197357,668.519786 C857.89519,668.477053 858.586286,668.676932 859.152776,669.085333 C859.613319,669.461306 859.867595,670.03275 859.838046,670.625362 C859.859034,671.134291 859.658562,671.627473 859.288084,671.978325 C858.851148,672.356956 858.302935,672.58437 857.725495,672.62653 L859.907882,675.106237 L858.227444,675.106237 L856.219647,672.643931 L855.569296,672.643931 L855.569296,675.106237 L854.163838,675.106237 L854.163838,668.524136 L857.219181,668.524136 L857.197357,668.519786 Z M856.76088,677.377128 C857.498003,677.384043 858.22829,677.2358 858.903984,676.942091 C859.55546,676.66258 860.147884,676.262538 860.649894,675.763142 C861.152858,675.264366 861.55449,674.673508 861.832748,674.022997 C862.405524,672.644131 862.405524,671.095002 861.832748,669.716136 C861.550393,669.06786 861.149255,668.47773 860.649894,667.97599 C860.147682,667.476838 859.555308,667.076829 858.903984,666.797041 C858.224223,666.519319 857.495491,666.380266 856.76088,666.388107 C856.013615,666.381186 855.272216,666.520109 854.578492,666.797041 C853.912566,667.071322 853.306314,667.471693 852.793299,667.97599 C851.214894,669.5897 850.75617,671.987056 851.627904,674.0665 C851.893714,674.719442 852.290248,675.31154 852.793299,675.806646 C853.306593,676.3106 853.912773,676.710925 854.578492,676.985595 C855.268051,677.279122 856.011095,677.42724 856.76088,677.420631 L856.76088,677.377128 Z M856.76088,664.804574 C858.679157,664.802637 860.521257,665.55267 861.88949,666.892749 C862.549174,667.536196 863.074339,668.303599 863.434621,669.150588 C864.18846,670.908056 864.18846,672.896332 863.434621,674.653799 C863.065869,675.49615 862.54175,676.262025 861.88949,676.911639 C861.21982,677.551639 860.440842,678.067278 859.589254,678.434266 C858.694992,678.812954 857.732491,679.00541 856.76088,678.999814 C855.777838,679.006853 854.803641,678.814433 853.897587,678.434266 C853.036194,678.075821 852.250003,677.559327 851.579891,676.911639 C850.927666,676.238235 850.410617,675.446765 850.056585,674.579843 C849.302746,672.822376 849.302746,670.8341 850.056585,669.076632 C850.416866,668.229643 850.942031,667.46224 851.601715,666.818793 C852.262751,666.159924 853.051287,665.641889 853.919411,665.296165 C854.825465,664.915999 855.799662,664.723579 856.782703,664.730618 L856.76088,664.804574 Z M188.426511,639.385395 C188.426511,626.834593 196.675936,616.524229 210.158726,616.524229 C223.043543,616.524229 231.738175,626.390856 231.738175,639.385395 C231.738175,652.379933 223.043543,662.24656 210.158726,662.24656 C196.675936,662.24656 188.426511,651.936196 188.426511,639.385395 Z M246.425643,639.385395 L246.425643,603.668902 L230.84776,603.668902 L230.84776,612.369631 C225.906835,605.939792 218.412516,601.907004 208.220766,601.907004 C188.142801,601.907004 172.385962,617.603119 172.385962,639.402796 C172.385962,661.202472 188.134071,676.898588 208.220766,676.898588 C218.408151,676.898588 225.906835,672.861449 230.84776,666.435961 L230.84776,675.106237 L246.408184,675.106237 L246.408184,639.385395 L246.425643,639.385395 Z M772.782606,639.385395 C772.782606,626.834593 781.032031,616.524229 794.519186,616.524229 C807.417097,616.524229 816.098634,626.390856 816.098634,639.385395 C816.098634,652.379933 807.417097,662.24656 794.519186,662.24656 C781.036396,662.24656 772.782606,651.936196 772.782606,639.385395 Z M830.799197,639.385395 L830.799197,575 L815.20822,575 L815.20822,612.369631 C810.267295,605.939792 802.772976,601.907004 792.581226,601.907004 C772.50326,601.907004 756.746422,617.603119 756.746422,639.402796 C756.746422,661.202472 772.494531,676.898588 792.581226,676.898588 C802.772976,676.898588 810.267295,672.861449 815.20822,666.435961 L815.20822,675.106237 L830.799197,675.106237 L830.799197,639.385395 Z M439.767722,615.789017 C449.806705,615.789017 456.253478,622.062243 457.898998,633.107819 L420.728573,633.107819 C422.391552,622.797455 428.672464,615.789017 439.772087,615.789017 L439.767722,615.789017 Z M440.081986,601.867851 C419.087418,601.867851 404.399949,617.094127 404.399949,639.363643 C404.399949,662.068195 419.676662,676.859434 441.125167,676.859434 C451.914891,676.859434 461.796742,674.175259 470.491374,666.853596 L462.857383,655.346882 C456.851452,660.132283 449.204366,662.816458 442.015581,662.816458 C431.976599,662.816458 422.83676,658.183319 420.5889,645.327992 L473.782415,645.327992 C473.935182,643.396431 474.092314,641.447467 474.092314,639.359292 C473.935182,617.098477 460.125034,601.863501 440.073257,601.863501 L440.081986,601.867851 Z M628.151417,639.359292 C628.151417,626.808491 636.400842,616.498127 649.883633,616.498127 C662.768449,616.498127 671.463081,626.364754 671.463081,639.359292 C671.463081,652.353831 662.768449,662.220458 649.883633,662.220458 C636.400842,662.220458 628.147052,651.910094 628.147052,639.359292 L628.151417,639.359292 Z M686.146184,639.359292 L686.146184,603.668902 L670.577031,603.668902 L670.577031,612.369631 C665.618647,605.939792 658.141787,601.907004 647.950037,601.907004 C627.872071,601.907004 612.115233,617.603119 612.115233,639.402796 C612.115233,661.202472 627.863342,676.898588 647.950037,676.898588 C658.141787,676.898588 665.618647,672.861449 670.577031,666.435961 L670.577031,675.106237 L686.150549,675.106237 L686.150549,639.385395 L686.146184,639.359292 Z M540.179374,639.359292 C540.179374,661.019757 555.307685,676.855084 578.397345,676.855084 C589.187069,676.855084 596.375854,674.462383 604.149519,668.341421 L596.668294,655.790619 C590.819495,659.98002 584.678257,662.220458 577.899761,662.220458 C565.464517,662.068195 556.320313,653.106444 556.320313,639.359292 C556.320313,625.612141 565.464517,616.65474 577.899761,616.498127 C584.660798,616.498127 590.802036,618.738565 596.668294,622.927966 L604.149519,610.377164 C596.36276,604.256201 589.173975,601.863501 578.397345,601.863501 C555.307685,601.863501 540.179374,617.694477 540.179374,639.359292 Z M741.002678,601.863501 C732.015606,601.863501 726.162443,606.052902 722.116296,612.326127 L722.116296,603.668902 L706.678087,603.668902 L706.678087,675.067084 L722.273428,675.067084 L722.273428,635.043731 C722.273428,623.228141 727.367121,616.663441 737.550141,616.663441 C740.884693,616.61547 744.195769,617.226115 747.292319,618.460141 L752.093572,603.825515 C748.645399,602.472552 744.149681,601.876552 740.993949,601.876552 L741.002678,601.863501 Z M323.4421,609.346128 C315.947781,604.421515 305.620723,601.876552 294.22866,601.876552 C276.079925,601.876552 264.395422,610.546828 264.395422,624.733367 C264.395422,636.374942 273.094419,643.557394 289.113144,645.797832 L296.472155,646.841919 C305.01402,648.038269 309.047072,650.278707 309.047072,654.311495 C309.047072,659.832108 303.372864,662.981772 292.718448,662.981772 C281.928724,662.981772 274.141965,659.544984 268.891141,655.512196 L261.571413,667.61926 C270.113278,673.892486 280.903002,676.885536 292.587505,676.885536 C313.276539,676.885536 325.266576,667.175523 325.266576,653.580634 C325.266576,641.029832 315.829932,634.465132 300.238956,632.224695 L292.897404,631.163206 C286.153826,630.293133 280.750235,628.940169 280.750235,624.154768 C280.750235,618.934331 285.843927,615.793368 294.390157,615.793368 C303.534361,615.793368 312.386125,619.230156 316.724711,621.914331 L323.468289,609.363529 L323.4421,609.346128 Z M524.44436,601.889603 C515.457288,601.889603 509.604124,606.079004 505.575437,612.35223 L505.575437,603.668902 L490.137227,603.668902 L490.137227,675.067084 L505.71511,675.067084 L505.71511,635.043731 C505.71511,623.228141 510.808802,616.663441 520.991823,616.663441 C524.326375,616.61547 527.63745,617.226115 530.734001,618.460141 L535.535254,603.825515 C532.087081,602.472552 527.591363,601.876552 524.43563,601.876552 L524.44436,601.889603 Z M391.510768,603.668902 L366.037941,603.668902 L366.037941,582.008437 L350.289832,582.008437 L350.289832,603.668902 L335.759496,603.668902 L335.759496,617.859791 L350.289832,617.859791 L350.289832,650.43097 C350.289832,666.997158 356.74097,676.863785 375.16905,676.863785 C381.930087,676.863785 389.716846,674.77561 394.657771,671.343172 L390.157688,658.048458 C385.509203,660.732633 380.41551,662.085596 376.364999,662.085596 C368.57824,662.085596 366.037941,657.300196 366.037941,650.135145 L366.037941,617.872842 L391.510768,617.872842 L391.510768,603.668902 Z M158.610732,675.084486 L158.610732,630.275731 C158.610732,613.400667 147.821008,602.046216 130.427379,601.893953 C121.283175,601.741691 111.850896,604.578128 105.246991,614.597018 C100.306066,606.679354 92.5193069,601.893953 81.5724509,601.893953 C73.921,601.893953 66.4441402,604.134391 60.5909768,612.495792 L60.5909768,603.668902 L45,603.668902 L45,675.067084 L60.7131905,675.067084 L60.7131905,635.478767 C60.7131905,623.084579 67.6095352,616.498127 78.2595865,616.498127 C88.6041036,616.498127 93.837469,623.21944 93.837469,635.322154 L93.837469,675.058383 L109.585578,675.058383 L109.585578,635.470066 C109.585578,623.075878 116.774362,616.489426 127.114515,616.489426 C137.751472,616.489426 142.827705,623.210739 142.827705,635.313453 L142.827705,675.049683 L158.610732,675.084486 Z" id="Shape" fill="#19110BFF" fill-rule="nonzero" fill-color-id="0" stroke-color-id="-1" recolor-fill="true" recolor-stroke="true"/>
            <path d="M863.991173,437 L863.991173,427 L861.232585,427 L858.041451,433.8625 L854.867972,427 L852.100557,427 L852.100557,437 L854.060257,437 L854.060257,429.466667 L857.043945,435.966667 L859.074266,435.966667 L862.057954,429.45 L862.057954,437 L864,437 L863.991173,437 Z M846.490693,437 L846.490693,428.7125 L850.021685,428.7125 L850.021685,427.025 L841,427.025 L841,428.7125 L844.530992,428.7125 L844.530992,437 L846.473038,437 L846.490693,437 Z" id="Shape" fill="#F79E1BFF" fill-rule="nonzero" fill-color-id="1" stroke-color-id="-1" recolor-fill="true" recolor-stroke="true"/>
            <polygon id="Path" fill="#FF5F00FF" points="553.995637 482 318 482 318 58 554 58" fill-color-id="4" stroke-color-id="-1" recolor-fill="true" recolor-stroke="true"/>
            <path d="M333.074023,269.999997 C333.074023,183.881548 373.321921,107.166813 435.99564,57.728525 C388.554862,20.2511279 329.877875,-0.0891396355 269.462988,0.000293662729 C120.639062,0.000293662729 0,120.881472 0,269.999997 C0,419.118522 120.639062,539.9997 269.462988,539.9997 C329.879368,540.090117 388.558049,519.749795 436,482.271469 C373.33064,432.841916 333.074023,356.122813 333.074023,269.999997" id="Path" fill="#EB001BFF" fill-color-id="2" stroke-color-id="-1" recolor-fill="true" recolor-stroke="true"/>
            <path d="M873,269.999997 C873,419.118528 752.366969,539.99971 603.550483,539.99971 C543.130739,540.088549 484.448598,519.748672 437,482.271477 C499.688024,432.833187 539.933909,356.122817 539.933909,269.999997 C539.933909,183.877177 499.688024,107.166807 437,57.7285169 C484.447425,20.2522507 543.127873,-0.0875720426 603.546124,0.000283419651 C752.362609,0.000283419651 872.995641,120.881466 872.995641,269.999997" id="Path" fill="#F79E1BFF" fill-color-id="3" stroke-color-id="-1" recolor-fill="true" recolor-stroke="true"/>
        </g>
    </g>
</svg>